# xmcd
#
# Track frame offsets:
#	150
#	16726
#	34090
#	47817
#	64778
#	81567
#	103086
#	120575
#	136139
#	150388
#	163407
#
# Disc length: 2391 seconds
#
# Revision: 0
# Processed by: cddbd v1.5.1PL0 Copyright (c) Steve Scherf et al.
# Submitted via: dBpowerAMP V4.0
#
DISCID=8c09550b
DTITLE=Lorrie Morgan - Greatest Hits
DYEAR=1995
DGENRE=Country
TTITLE0=Five Minutes
TTITLE1=Dear Me
TTITLE2=Except For Monday
TTITLE3=A Picture Of Me ( Without You )
TTITLE4=Watch Me
TTITLE5=Something In Red
TTITLE6=Back In Your Arms Again
TTITLE7=I Didn't Know My Own Strength
TTITLE8=Standing Tall
TTITLE9=What Part Of No
TTITLE10='Til A Tear Becomes A Rose  with Keith Whitley
EXTD=
EXTT0=
EXTT1=
EXTT2=
EXTT3=
EXTT4=
EXTT5=
EXTT6=
EXTT7=
EXTT8=
EXTT9=
EXTT10=
PLAYORDER=
